<svg xmlns="http://www.w3.org/2000/svg" width="512" height="512" viewBox="1699.4 2719.9 3941.2 3941.2"><g transform="translate(0,9410) scale(1,-1)" fill="#f4391c"><path d="M2352 6004 l-22 -15 0 -869 0 -869 239 171 240 171 0 464 c0 255 3 468 6 474 4 5 301 9 759 9 591 0 756 -3 763 -12 18 -23 24 -399 8 -489 -8 -44 -17 -84 -20 -89 -13 -22 -42 -8 -83 40 l-43 50 -113 0 -114 0 -223 -162 c-123 -89 -397 -286 -609 -438 -212 -152 -481 -345 -597 -429 l-213 -153 0 -219 0 -219 125 0 125 0 0 103 0 103 151 109 c83 59 159 108 168 109 14 1 16 -22 19 -211 l2 -213 125 0 125 0 2 318 3 317 150 107 c83 59 156 108 163 108 7 0 12 -13 12 -32 1 -18 2 -208 3 -423 l2 -390 127 -3 128 -3 2 578 3 578 150 107 c83 59 155 106 160 104 7 -2 11 -241 13 -684 l2 -682 460 0 c381 0 460 2 460 14 0 14 -30 58 -432 628 -142 201 -258 369 -258 372 0 3 6 6 14 6 30 0 194 92 256 143 272 224 359 639 205 966 -69 145 -192 284 -320 360 -76 46 -195 87 -290 100 -51 7 -378 11 -944 11 -764 0 -870 -2 -889 -16z"/></g></svg>