<svg xmlns="http://www.w3.org/2000/svg" viewBox="0 0 568.35 568.01" width="568.35" height="568.01" fill="none">
  <path d="M0.000989953 0C0.0606067 34.7337 12.9628 68.2181 36.2247 94.0101C59.4867 119.802 91.4648 136.079 126.005 139.709L367.564 140.845L390.613 68.9869L414.095 140.349L490.202 140.7L429.09 185.707L451.312 256.883L390.406 213.653L329.831 257.689L343.813 212.455L139.141 213.281C120.789 213.319 102.625 216.979 85.6907 224.053C68.7565 231.127 53.3851 241.474 40.4583 254.502C27.5315 267.529 17.3034 282.981 10.3608 299.971C3.41824 316.96 -0.102349 335.153 0.000989953 353.506V561.768L153.928 407.994L313.928 568.006H514.263L303.002 356.728L416.987 352.577C460.504 346.135 500.075 323.748 528.013 289.763C555.95 255.779 570.261 212.623 568.166 168.678C566.071 124.732 547.718 83.1344 516.674 51.9628C485.629 20.7913 444.108 2.27136 400.175 0L0.000989953 0Z" fill="#FF0000"/>
</svg>
